<?xml version="1.0" encoding="utf-8" ?><svg xmlns="http://www.w3.org/2000/svg" xmlns:xlink="http://www.w3.org/1999/xlink" width="1024" height="1024" viewBox="0 0 1024 1024"><path fill="#201F20" transform="scale(4.17959 4.17959)" d="M88.2336 7.24236C90.2706 7.31056 93.513 6.79256 95.6831 6.5289C113.051 4.4187 129.253 5.46393 146.625 6.29807C157.067 7.58312 164.519 7.93679 175.195 9.91943C187.204 12.0792 198.096 14.5151 209.778 18.3324C210.099 22.9214 209.904 28.1577 210.008 32.8203L210.958 64.1594C212.824 113.7 215.384 159.942 180.693 199.866C179.833 200.854 178.976 201.956 177.985 202.811C163.611 218.213 142.446 233.819 122.259 240.442C119.039 240.001 113.899 237.469 110.844 235.988C108.126 234.51 105.291 233.248 102.555 231.728C96.5231 228.314 90.6748 224.587 85.0339 220.56C78.1685 215.15 71.6909 209.266 65.6489 202.949C38.2442 173.927 31.4974 138.682 31.2822 99.9845C31.2342 91.3586 31.7431 83.5024 31.9836 74.973L33.5395 18.2355C35.1034 17.7143 36.8794 17.2652 38.4886 16.8275C54.5709 12.4532 71.5705 8.45636 88.2336 7.24236Z"/><defs><linearGradient id="gradient_0" gradientUnits="userSpaceOnUse" x1="31.968481" y1="113.80667" x2="86.115479" y2="113.87547"><stop offset="0" stop-color="#FFCD3C"/><stop offset="1" stop-color="#FFE38D"/></linearGradient></defs><path fill="url(#gradient_0)" transform="scale(4.17959 4.17959)" d="M33.5395 18.2355C35.1034 17.7143 36.8794 17.2652 38.4886 16.8275C54.5709 12.4532 71.5705 8.45636 88.2336 7.24236C87.9983 7.67453 87.8528 8.13817 87.4834 8.30909C86.3876 10.0132 86.4075 10.0571 85.6514 11.917L86.2219 14.3936L86.6736 14.6062C78.6229 16.0432 71.2797 16.6608 62.7965 18.4013C58.1322 19.366 53.4936 20.4511 48.8854 21.6553C46.5366 22.2588 43.1152 23.2643 40.8148 23.7136C40.5002 41.1254 39.9762 58.5328 39.2428 75.9321C37.6836 122.88 38.1633 163.391 72.4828 199.621C74.7357 202 77.0336 204.201 79.4218 206.448C80.5209 207.482 85.768 211.558 86.3023 212.276L86.5271 213.603C85.9787 214.363 86.1182 219.047 86.4689 220.116C86.0732 220.229 85.3822 220.401 85.0339 220.56C78.1685 215.15 71.6909 209.266 65.6489 202.949C38.2442 173.927 31.4974 138.682 31.2822 99.9845C31.2342 91.3586 31.7431 83.5024 31.9836 74.973L33.5395 18.2355Z"/><path fill="#BAA25B" transform="scale(4.17959 4.17959)" d="M85.6514 11.917C85.0507 10.5252 86.336 8.98808 87.4834 8.30909C86.3876 10.0132 86.4075 10.0571 85.6514 11.917Z"/><defs><linearGradient id="gradient_1" gradientUnits="userSpaceOnUse" x1="173.10042" y1="106.0061" x2="211.04843" y2="105.94473"><stop offset="0" stop-color="#FFD14A"/><stop offset="1" stop-color="#FFEEA3"/></linearGradient></defs><path fill="url(#gradient_1)" transform="scale(4.17959 4.17959)" d="M175.195 9.91943C187.204 12.0792 198.096 14.5151 209.778 18.3324C210.099 22.9214 209.904 28.1577 210.008 32.8203L210.958 64.1594C212.824 113.7 215.384 159.942 180.693 199.866C179.833 200.854 178.976 201.956 177.985 202.811C177.608 202.015 172.936 199.181 171.985 198.694C179.479 189.893 186.534 180.664 191.653 170.245C212.589 127.644 202.509 69.891 202.757 23.7314C201.948 23.5707 201.088 23.3399 200.295 23.1128C191.605 20.624 182.895 18.8241 174.033 17.0887C174.23 13.6649 176.198 12.4189 175.195 9.91943Z"/><defs><linearGradient id="gradient_2" gradientUnits="userSpaceOnUse" x1="175.03255" y1="221.29713" x2="112.88443" y2="217.21767"><stop offset="0" stop-color="#FFCA38"/><stop offset="1" stop-color="#FFF0A6"/></linearGradient></defs><path fill="url(#gradient_2)" transform="scale(4.17959 4.17959)" d="M171.985 198.694C172.936 199.181 177.608 202.015 177.985 202.811C163.611 218.213 142.446 233.819 122.259 240.442C119.039 240.001 113.899 237.469 110.844 235.988C111.044 234.454 113.665 231.452 114.64 229.921L114.714 229.804C116.954 230.8 119.317 231.734 121.59 232.669C126.205 231.175 131.075 228.728 135.352 226.43C148.994 219.244 161.368 209.875 171.985 198.694Z"/><path fill="#FEE180" transform="scale(4.17959 4.17959)" d="M88.2336 7.24236C90.2706 7.31056 93.513 6.79256 95.6831 6.5289C113.051 4.4187 129.253 5.46393 146.625 6.29807C148.924 7.67374 149.515 10.9384 149.347 13.4322C146.433 13.3021 140.543 12.4477 138.137 13.0734C126.917 12.5059 115.676 12.5295 104.459 13.1442C98.5124 13.4954 92.4202 14.2837 86.6736 14.6062L86.2219 14.3936L85.6514 11.917C86.4075 10.0571 86.3876 10.0132 87.4834 8.30909C87.8528 8.13817 87.9983 7.67453 88.2336 7.24236Z"/><path fill="#FED968" transform="scale(4.17959 4.17959)" d="M86.3023 212.276C92.0643 216.778 97.5711 220.342 103.877 224.077C106.351 225.543 112.846 228.439 114.714 229.804L114.64 229.921C113.665 231.452 111.044 234.454 110.844 235.988C108.126 234.51 105.291 233.248 102.555 231.728C96.5231 228.314 90.6748 224.587 85.0339 220.56C85.3822 220.401 86.0732 220.229 86.4689 220.116C86.1182 219.047 85.9787 214.363 86.5271 213.603L86.3023 212.276Z"/><path fill="#BAA25B" transform="scale(4.17959 4.17959)" d="M86.5271 213.603C86.9493 214.208 86.8128 219.509 86.4689 220.116C86.1182 219.047 85.9787 214.363 86.5271 213.603Z"/><path fill="#FED968" transform="scale(4.17959 4.17959)" d="M146.625 6.29807C157.067 7.58312 164.519 7.93679 175.195 9.91943C176.198 12.4189 174.23 13.6649 174.033 17.0887C165.219 15.7638 156.406 14.3472 147.504 13.7608C144.38 13.555 141.257 13.3195 138.137 13.0734C140.543 12.4477 146.433 13.3021 149.347 13.4322C149.515 10.9384 148.924 7.67374 146.625 6.29807Z"/><path fill="#201F20" transform="scale(4.17959 4.17959)" d="M50.2599 147.538C50.0419 137.645 50.2874 136.587 58.8172 131.661C59.95 130.245 61.5225 127.099 62.2457 125.666C66.7376 116.765 76.2024 110.335 85.8193 108.253C87.2011 107.954 89.9566 107.415 91.1872 106.896C97.8736 104.079 104.037 100.005 111.621 102.288C113.732 102.915 115.683 103.94 117.411 105.427C120.948 108.803 131.426 120.075 133.589 123.796C138.004 123.756 139.981 123.73 144.197 124.944C148.344 126.207 153.446 131.159 157.49 129.946C158.768 129.563 159.686 127.143 158.599 126.022C154.616 121.493 147.364 117.465 155.06 111.51C159.205 108.304 167.806 112.907 169.98 117.043C171.659 119.848 172.282 123.212 172.826 126.368C170.041 124.525 167.501 123.385 164.483 122.104C162.445 121.239 160.258 120.079 160.056 117.695C159.938 116.787 159.726 114.889 159.285 114.197C156.953 113.209 154.506 116.149 155.619 117.684C158.396 121.514 165.303 122.114 163.272 128.831C162.678 130.789 161.317 132.423 159.499 133.363C157.595 134.351 155.272 133.753 154.665 135.26C155.297 143.201 165.724 139.334 168.251 145.66C170.757 151.933 169.228 153.802 176.217 156.806C176.332 158.949 176.436 161.088 176.908 163.189L179.838 163.789C181.01 167.895 181.546 173.096 179.439 176.993C179.198 177.428 178.939 177.854 178.661 178.267C174.122 176.106 170.761 171.727 167.952 167.595C165.278 163.661 163.341 158.045 157.943 156.824C153.619 155.845 148.702 157.184 144.405 157.072C138.418 156.989 136.45 156.579 131.53 153.302C123.828 157.035 120.328 155.561 112.401 155.477C107.894 155.429 106.48 156.836 101.106 155.557C101.589 156.102 102.055 156.661 102.505 157.234C104.468 159.735 110.54 169.415 102.485 167.512C96.3744 166.068 89.775 168.135 87.8134 160.525C86.7715 156.483 84.61 152.207 82.2258 148.763C80.7403 158.682 76.5189 160.204 67.6433 155.311C65.595 154.181 66.2396 151.043 65.2866 149.194C63.6209 145.962 61.5462 144.429 60.8865 140.658C54.8778 142.592 54.8098 142.926 50.2599 147.538Z"/><path fill="#FEE180" transform="scale(4.17959 4.17959)" d="M50.2599 147.538C50.0419 137.645 50.2874 136.587 58.8172 131.661C59.95 130.245 61.5225 127.099 62.2457 125.666C66.7376 116.765 76.2024 110.335 85.8193 108.253C87.2011 107.954 89.9566 107.415 91.1872 106.896C97.8736 104.079 104.037 100.005 111.621 102.288C113.732 102.915 115.683 103.94 117.411 105.427C120.948 108.803 131.426 120.075 133.589 123.796C138.004 123.756 139.981 123.73 144.197 124.944C144.803 125.836 144.864 125.645 144.916 126.586C144.31 127.216 143.273 127.299 142.277 127.585C138.548 127.064 136.446 127.302 132.742 127.594C130.093 124.884 127.56 121.977 125.038 119.141C125.702 121.552 125.838 122.374 125.803 124.958C122.331 117.82 120.393 108.591 111.955 105.807C102.062 102.542 93.6243 108.969 86.8255 115.064L88.9455 110.277C81.0596 113.591 72.8952 115.033 67.1803 123.182C64.2863 127.309 66.564 126.915 61.8267 131.285C63.2408 130.825 65.1948 130.128 66.5911 129.779C67.8084 127.14 73.1069 120.451 76.1699 120.954C78.6483 122.577 75.595 132.519 71.691 132.064C69.7298 130.222 74.5144 125.276 75.7626 123.867C73.0934 125.756 70.4749 127.755 68.3479 130.267C71.4504 133.45 71.2437 135.733 68.9941 139.331C67.0358 139.862 65.6565 140.152 63.6092 140.256C64.3251 141.596 65.2754 144.327 67.0509 143.647C67.4665 143.107 67.8627 142.552 68.2386 141.984C68.8631 142.401 69.0485 143.48 69.6093 144.434C68.8134 145.649 68.0812 146.252 68.4211 147.667C68.9257 149.768 69.4195 150.775 69.5574 152.975C71.934 153.923 73.7936 154.618 76.2493 155.403C76.2089 150.757 76.3269 150.287 78.498 146.13C77.4966 146.755 76.3007 147.763 75.2619 147.893C74.3647 147.56 74.6279 147.662 73.9572 146.879C74.1616 146.007 74.2233 145.909 74.7607 145.203C74.6732 140.839 76.5356 140.283 76.5691 138.506L75.5385 137.094C76.5903 136.401 77.3807 135.901 78.5028 135.295C77.3952 133.056 76.6347 132.275 74.9581 130.425C76.1785 130.98 77.7826 131.768 79.0229 132.18C82.2213 131.066 83.9189 130.224 87.3181 129.579C87.0368 128.514 86.9725 127.444 86.2433 126.866C83.2721 126.144 79.1474 128.716 77.4447 128.598C77.583 126.146 85.1185 123.898 87.1574 123.227L87.8791 118.073C88.6259 124.409 88.8883 126.143 91.962 131.897C91.0164 126.066 90.354 121.082 94.0301 115.951C95.0258 114.588 96.1765 113.346 97.459 112.249C94.381 118.828 93.6213 120.247 93.4166 127.563C95.8992 124.41 97.7935 123.094 101.53 121.579C96.6094 126.46 93.2487 130.211 93.2201 137.482C93.2192 137.79 93.2221 138.098 93.2289 138.406C95.5676 138.005 97.3605 137.651 99.7444 137.756C103.015 139.762 103.249 140.491 104.632 144.042C102.913 142.737 100.033 140.13 97.9113 140.538C95.0752 141.083 84.681 143.001 82.998 144.862C82.9189 145.587 82.9721 145.671 83.363 146.294C84.7662 147.008 84.7556 145.626 85.7846 145.932C86.0103 146.909 85.9075 148.355 86.1021 148.825C86.8097 150.531 88.3647 152.357 89.1761 154.034C90.2879 156.331 90.7037 161.419 92.8526 162.893C93.7495 163.509 96.7665 163.483 97.9176 163.511L96.5502 160.794C95.5404 160.243 94.538 159.677 93.4913 159.2C92.2584 156.137 90.9592 152.611 89.0758 149.925C89.4025 148.326 89.7794 146.186 90.2074 144.655C90.6892 146.11 91.0431 147.253 91.4057 148.742C94.5795 150.074 97.6349 151.435 100.968 152.311C109.148 154.459 110.053 152.54 110.606 145.323C111.234 146.426 112.03 147.657 112.242 148.89L112.27 149.047C112.494 150.359 112.169 151.472 111.919 152.773C118.695 147.33 118.427 143.692 114.925 136.16C115.892 137.368 117.124 139.096 118.666 139.475C120.397 139.125 119.271 133.974 119.017 132.629C118.469 129.728 117.048 127.31 115.632 124.78C122.024 130.08 122.716 133.285 122.631 141.46C123.89 142.361 124.725 142.964 126.092 143.703C127.008 141.696 127.556 140.172 128.276 138.077C129.824 144.039 130.56 148.521 136.326 151.916C138.731 153.331 141.755 154.351 144.575 154.176C145.636 155.12 145.16 156.045 144.405 157.072C138.418 156.989 136.45 156.579 131.53 153.302C123.828 157.035 120.328 155.561 112.401 155.477C107.894 155.429 106.48 156.836 101.106 155.557C101.589 156.102 102.055 156.661 102.505 157.234C104.468 159.735 110.54 169.415 102.485 167.512C96.3744 166.068 89.775 168.135 87.8134 160.525C86.7715 156.483 84.61 152.207 82.2258 148.763C80.7403 158.682 76.5189 160.204 67.6433 155.311C65.595 154.181 66.2396 151.043 65.2866 149.194C63.6209 145.962 61.5462 144.429 60.8865 140.658C54.8778 142.592 54.8098 142.926 50.2599 147.538Z"/><path fill="#201F20" transform="scale(4.17959 4.17959)" d="M64.3167 132.04C64.6239 132.073 64.9304 132.112 65.2358 132.159C66.6154 132.375 69.0626 133.622 68.5031 135.326C67.1451 139.462 61.5036 137.078 58.2279 138.123C56.3537 138.72 56.0241 138.916 54.3853 140.004L52.1225 141.912C54.9952 136.812 56.6839 136.381 62.3366 135.282C63.1484 135.124 64.6766 134.671 65.3749 134.223C65.4011 133.028 64.6456 133.85 64.3167 132.04Z"/><defs><linearGradient id="gradient_3" gradientUnits="userSpaceOnUse" x1="145.25201" y1="143.99628" x2="180.25439" y2="144.00192"><stop offset="0" stop-color="#FFD233"/><stop offset="1" stop-color="#FFE9A0"/></linearGradient></defs><path fill="url(#gradient_3)" transform="scale(4.17959 4.17959)" d="M144.197 124.944C148.344 126.207 153.446 131.159 157.49 129.946C158.768 129.563 159.686 127.143 158.599 126.022C154.616 121.493 147.364 117.465 155.06 111.51C159.205 108.304 167.806 112.907 169.98 117.043C171.659 119.848 172.282 123.212 172.826 126.368C170.041 124.525 167.501 123.385 164.483 122.104C162.445 121.239 160.258 120.079 160.056 117.695C159.938 116.787 159.726 114.889 159.285 114.197C156.953 113.209 154.506 116.149 155.619 117.684C158.396 121.514 165.303 122.114 163.272 128.831C162.678 130.789 161.317 132.423 159.499 133.363C157.595 134.351 155.272 133.753 154.665 135.26C155.297 143.201 165.724 139.334 168.251 145.66C170.757 151.933 169.228 153.802 176.217 156.806C176.332 158.949 176.436 161.088 176.908 163.189L179.838 163.789C181.01 167.895 181.546 173.096 179.439 176.993C179.198 177.428 178.939 177.854 178.661 178.267C174.122 176.106 170.761 171.727 167.952 167.595C165.278 163.661 163.341 158.045 157.943 156.824C153.619 155.845 148.702 157.184 144.405 157.072C145.16 156.045 145.636 155.12 144.575 154.176C147.315 153.634 152.889 152.947 155.565 153.141C167.853 154.033 167.86 163.121 173.599 169.473C173.755 164.84 173.033 163.748 172.556 159.295C165.846 154.138 167.766 153.601 164.621 146.568C162.142 145.243 157.806 143.953 155.042 143.062C155.712 144.1 156.926 145.767 156.967 146.932L156.574 147.081C150.876 144.642 152.491 139.164 150.432 134.319C148.711 130.271 146.007 129.084 142.277 127.585C143.273 127.299 144.31 127.216 144.916 126.586C144.864 125.645 144.803 125.836 144.197 124.944Z"/><path fill="#FED968" transform="scale(4.17959 4.17959)" d="M75.5385 137.094L76.5691 138.506C75.4254 139.115 72.8168 142.707 70.094 144.387C71.4733 141.453 72.9377 139.088 75.5385 137.094Z"/><path fill="#FED968" transform="scale(4.17959 4.17959)" d="M69.6503 148.179C71.3501 145.461 71.2613 144.16 74.7607 145.203C74.2233 145.909 74.1616 146.007 73.9572 146.879C73.1191 146.965 70.5847 147.868 69.6503 148.179Z"/><defs><linearGradient id="gradient_4" gradientUnits="userSpaceOnUse" x1="53.966805" y1="89.357697" x2="62.867081" y2="68.689178"><stop offset="0" stop-color="#FFD235"/><stop offset="1" stop-color="#FFE58B"/></linearGradient></defs><path fill="url(#gradient_4)" transform="scale(4.17959 4.17959)" d="M57.2182 80.6589C58.3935 78.0127 61.5841 70.2295 64.1494 69.3797C64.6328 69.2172 65.1632 69.2764 65.5989 69.5414C67.3784 70.608 69.0445 78.7021 69.4889 81.013C69.6067 81.6542 69.6951 82.3005 69.7537 82.9498L65.8516 83.8663L63.4711 75.1573C59.6202 84.6721 56.9873 91.0528 50.9538 77.3233C50.5574 79.4188 49.7278 85.2886 48.3131 86.5608C47.6488 86.7827 47.4106 86.7906 46.727 86.8525C45.9739 86.9868 45.4022 87.1901 44.737 86.8835C44.5273 86.0519 44.9319 85.2937 45.2144 84.3677C45.9743 81.6053 47.0731 76.8176 48.2812 74.3299C51.7269 67.2346 56.0934 77.6739 57.2182 80.6589Z"/><path fill="#FED968" transform="scale(4.17959 4.17959)" d="M45.2144 84.3677C46.0821 85.3622 46.5226 85.4821 46.727 86.8525C45.9739 86.9868 45.4022 87.1901 44.737 86.8835C44.5273 86.0519 44.9319 85.2937 45.2144 84.3677Z"/><path fill="#FED968" transform="scale(4.17959 4.17959)" d="M57.0074 51.6977C61.4735 46.4271 68.4881 47.0299 74.3969 45.3364C73.563 46.9902 72.8413 48.2313 71.5256 49.5783C67.1653 50.8142 63.2456 50.4829 60.4617 53.8801C59.9374 56.1896 60.7104 56.5325 62.4013 57.8661L62.7264 56.322L62.586 56.0012C63.3995 51.7111 70.5643 51.5064 74.0162 51.1856L73.9875 60.1337C70.9482 60.6347 67.9009 61.2066 64.8323 61.4958C61.2903 61.8296 57.2152 61.3852 56.3206 57.2448C55.8544 55.087 55.8461 53.6409 57.0074 51.6977Z"/><path fill="#FEE180" transform="scale(4.17959 4.17959)" d="M57.0074 51.6977C61.4735 46.4271 68.4881 47.0299 74.3969 45.3364C73.563 46.9902 72.8413 48.2313 71.5256 49.5783C67.1653 50.8142 63.2456 50.4829 60.4617 53.8801L59.4423 54.2762C59.0232 55.6259 60.3899 55.7246 60.2896 57.3022C59.3905 58.3049 58.9366 58.3105 57.7426 57.5881C56.1485 56.6237 57.3022 54.9024 56.9642 53.4445C56.8445 52.9282 56.9508 52.2358 57.0074 51.6977Z"/><path fill="#201F20" transform="scale(4.17959 4.17959)" d="M62.7264 56.322C64.1466 55.9958 67.8845 54.9134 69.0366 55.8675C68.5026 57.6006 63.9055 58.1675 62.4013 57.8661L62.7264 56.322Z"/><path fill="#FED968" transform="scale(4.17959 4.17959)" d="M131.545 42.4012L131.621 42.4433L131.703 42.847C131.123 43.8409 129.579 45.3429 128.714 46.2442C126.599 46.2605 122.186 46.2143 120.001 46.6582C119.747 46.7096 119.736 46.9936 119.669 47.2469L120.158 47.6947C122.671 48.2448 127.906 47.6477 130.621 47.437C129.588 49.2361 128.518 50.3406 127.012 51.7149C125.18 51.6259 119.503 51.1162 118.352 52.3671L118.513 52.6159C120.592 53.5891 124.227 53.2061 126.499 53.0529L130.264 52.9764L127.1 56.8333C122.77 56.6773 117.791 56.7789 113.409 56.7621C113.904 52.256 114.904 47.172 115.745 42.7067C120.69 42.7501 126.607 42.608 131.545 42.4012Z"/><path fill="#FEE180" transform="scale(4.17959 4.17959)" d="M92.6562 44.1283L93.0301 44.0629L93.3563 44.3117C93.1732 45.6291 91.6386 46.9719 90.6769 47.8579C88.5257 48.1941 83.4632 48.2713 81.8853 49.3586L81.914 49.5898C84.0258 50.3767 90.1389 49.433 92.6369 49.1157C91.6437 50.8782 91.3721 51.3977 90.0374 52.9125C88.1641 53.2294 81.7161 52.8682 81.1852 54.6458L81.5187 54.9894C83.4164 55.6188 87.3177 55.0369 89.4392 54.8206C90.5486 54.7269 91.9014 54.4591 93.0181 54.2698C92.1489 55.5908 91.089 57.3123 90.0461 58.4442C85.9026 58.9431 80.8938 59.2062 76.6735 59.5388C76.7145 54.8604 77.2756 50.0215 77.5559 45.3074C81.8237 45.1792 88.1733 44.4273 92.6562 44.1283Z"/><path fill="#FEE180" transform="scale(4.17959 4.17959)" d="M83.1857 67.4157C86.3378 67.3898 92.4183 78.0982 94.0447 80.675C88.6145 80.9233 83.5247 82.2793 77.4536 82.2542C78.2523 81.1522 79.5609 79.6543 80.4545 78.5681C81.7658 78.2716 85.3547 78.3548 85.9472 77.3851L85.6958 76.8777C84.7827 75.3492 83.7173 73.8099 82.7216 72.3238C81.4965 75.1414 77.9575 79.2799 76.1963 82.3535C74.0269 82.7726 72.8839 82.9414 70.6845 83.0691C73.0886 79.3884 79.6664 69.427 83.1857 67.4157Z"/><path fill="#FED968" transform="scale(4.17959 4.17959)" d="M144.356 66.1424C147.727 66.767 152.173 73.0514 154.012 75.9265C154.456 72.9609 154.989 70.3627 155.609 67.4295L159.761 67.5245C158.888 72.4775 158.182 77.5942 155.015 81.5617C152.666 82.6045 146.943 74.2058 145.711 72.5732C144.936 75.3539 144.171 77.993 143.608 80.8286L139.618 80.4289C140.116 76.6251 141.747 68.813 144.356 66.1424Z"/><path fill="#FEE180" transform="scale(4.17959 4.17959)" d="M108.781 42.829L112.599 42.7394C110.089 55.8972 112.88 63.8319 98.8719 49.1859C98.7246 52.175 98.4806 54.7801 98.1604 57.7572L94.1878 58.0556C95.1827 47.7775 93.6981 37.2922 105.401 49.1932C105.965 49.7672 106.829 50.4549 107.461 51.0039C107.533 48.5638 107.901 45.0713 108.781 42.829Z"/><defs><linearGradient id="gradient_5" gradientUnits="userSpaceOnUse" x1="188.08444" y1="76.874756" x2="185.46936" y2="85.746475"><stop offset="0" stop-color="#FFD33E"/><stop offset="1" stop-color="#FFE389"/></linearGradient></defs><path fill="url(#gradient_5)" transform="scale(4.17959 4.17959)" d="M179.515 74.0565C180.194 74.2447 182.522 75.032 183.008 75.091C185.258 78.4288 203.258 76.4605 194.213 85.1285C191.957 87.2908 179.025 84.3004 175.87 83.694C177.194 82.5347 178.443 81.375 179.927 80.428C182.094 80.9752 190.7 83.0818 192.289 81.8762L192.299 81.408C190.101 78.7143 178.163 81.6876 179.515 74.0565Z"/><path fill="#FED968" transform="scale(4.17959 4.17959)" d="M151.582 57.6736C154.906 54.071 163.543 45.9093 168.045 44.473C171.415 47.9081 172.361 52.3109 173.827 56.8855C171.414 56.8391 170.395 56.6939 168.183 55.7597C167.703 53.7278 166.918 51.4892 166.266 49.4834C163.348 52.1397 159.563 55.377 156.811 58.1216C154.922 57.7373 153.547 57.5059 151.582 57.6736Z"/><path fill="#FED968" transform="scale(4.17959 4.17959)" d="M162.723 67.918C168.122 68.2165 173.663 69.3658 178.966 69.4555C177.645 70.7165 176.389 71.9229 175.002 73.1101C173.215 72.6815 168.276 71.9086 166.641 72.5572L166.506 72.9171C168.101 74.6895 174.319 74.5404 176.627 74.4779C175.624 75.5501 174.664 76.6008 173.585 77.5999C171.375 77.4034 165.618 76.5282 164.033 77.6439L163.944 77.4278C163.287 76.9804 161.194 76.8701 160.292 76.7725C160.819 74.1151 161.907 70.5672 162.723 67.918Z"/><defs><linearGradient id="gradient_6" gradientUnits="userSpaceOnUse" x1="106.40207" y1="63.551006" x2="97.302971" y2="79.28064"><stop offset="0" stop-color="#FFDB4F"/><stop offset="1" stop-color="#FFEDA5"/></linearGradient></defs><path fill="url(#gradient_6)" transform="scale(4.17959 4.17959)" d="M104.379 80.5776C104.214 80.604 104.048 80.6262 103.882 80.644C101.387 80.9095 97.9976 80.6946 96.009 78.992C93.2498 76.6295 92.7619 72.8063 95.358 70.0773C99.7993 65.4086 107.183 66.1611 113.099 65.9661L109.972 69.7813C106.946 69.6667 102.888 69.4964 100.296 71.1923C95.7341 74.1772 98.9074 76.83 102.996 77.044C103.46 78.2089 103.953 79.401 104.379 80.5776Z"/><path fill="#FEE180" transform="scale(4.17959 4.17959)" d="M115.128 66.014L119.734 66.0606L118.447 70.9894C120.486 70.9583 125.499 70.8015 127.179 71.2533C128.049 71.7043 130.09 72.6507 131.065 72.7226C130.955 74.86 130.321 78.1054 129.831 80.2299L125.361 79.9577C125.654 78.344 125.968 76.2919 126.451 74.7667C124.622 74.7648 119.371 74.8933 117.877 74.3863C116.721 74.0479 115.097 73.3982 113.929 72.9645L115.128 66.014Z"/><path fill="#FEE180" transform="scale(4.17959 4.17959)" d="M181.231 46.3631L185.601 47.1935C184.486 50.3719 183.28 54.0496 182.001 57.1205C186.064 57.8785 189.191 58.5254 193.351 58.6345L190.163 61.0296C189.891 61.2254 189.618 61.4213 189.346 61.6171C185.183 61.9 180.413 60.8416 176.265 60.226C178.039 56.1882 179.724 50.6362 181.231 46.3631Z"/><path fill="#FEE180" transform="scale(4.17959 4.17959)" d="M132.606 49.8118C135.373 49.8493 142.86 49.7831 145.339 50.4309C146.167 51.5977 146.518 52.1577 147.66 53.0765C148.95 54.5089 150.186 56.1906 151.366 57.731C146.549 57.0822 145.542 58.6876 143.17 53.538L136.289 53.3018C136.228 54.45 136.047 55.8434 135.928 57.007L131.051 57.0045C131.623 54.813 132.28 52.0127 132.606 49.8118Z"/><path fill="#FED968" transform="scale(4.17959 4.17959)" d="M136.915 42.9634C140.706 43.012 145.087 42.9353 148.727 43.9121C155.179 45.6432 152.378 51.0777 147.66 53.0765C146.518 52.1577 146.167 51.5977 145.339 50.4309C146.112 50.0151 146.856 49.7272 147.275 48.9726C147.432 46.0255 135.323 46.7321 133.303 46.7814L136.915 42.9634Z"/><path fill="#FED968" transform="scale(4.17959 4.17959)" d="M135.402 66.205C136.848 66.2557 138.42 66.233 139.877 66.2375C139.36 70.3918 137.892 76.4358 136.873 80.5507C135.544 80.52 133.715 80.3078 132.352 80.1855C133.436 75.5403 134.453 70.8796 135.402 66.205Z"/><path fill="#FEE180" transform="scale(4.17959 4.17959)" d="M179.515 74.0565C180.253 72.7412 181.014 71.8529 182.557 71.5203C187.437 70.4688 194.077 72.5281 199.115 73.1818C197.711 74.2927 196.154 75.5941 194.643 76.5089C191.995 75.7608 185.532 74.4108 183.008 75.091C182.522 75.032 180.194 74.2447 179.515 74.0565Z"/><path fill="#FEE180" transform="scale(4.17959 4.17959)" d="M160.292 76.7725C161.194 76.8701 163.287 76.9804 163.944 77.4278L164.033 77.6439L164.575 78.4096C166.851 79.3772 173.676 79.5392 176.345 79.573C175.099 80.7297 173.873 81.9075 172.667 83.1058L158.629 81.8561C159.251 80.1275 159.529 78.525 160.292 76.7725Z"/><path fill="#FEE180" transform="scale(4.17959 4.17959)" d="M162.5 54.9121C164.358 54.9893 166.392 55.262 168.183 55.7597C170.395 56.6939 171.414 56.8391 173.827 56.8855C174.087 57.2968 174.894 59.5047 175.118 60.0869C169.58 59.3965 164.025 58.8521 158.459 58.4541C159.854 57.134 161.012 56.1278 162.5 54.9121Z"/><path fill="#FED968" transform="scale(4.17959 4.17959)" d="M113.929 72.9645C115.097 73.3982 116.721 74.0479 117.877 74.3863C117.875 76.5286 117.518 78.1035 117.144 80.2084C115.563 80.2872 114.177 80.1818 112.601 80.0868L113.929 72.9645Z"/><path fill="#FED968" transform="scale(4.17959 4.17959)" d="M127.504 66.0061L132.391 66.0059C132.14 67.2913 131.405 71.7469 131.065 72.7226C130.09 72.6507 128.049 71.7043 127.179 71.2533C127.286 69.5877 127.459 67.6514 127.504 66.0061Z"/><path fill="#FED968" transform="scale(4.17959 4.17959)" d="M102.996 77.044C105.696 76.7888 108.942 76.6835 111.538 76.322C110.472 77.9093 109.676 79.0007 108.47 80.4826L104.379 80.5776C103.953 79.401 103.46 78.2089 102.996 77.044Z"/></svg>